# xmcd
#
# Track frame offsets:
#   150
#   27801
#   43046
#   64407
#   91445
#   120014
#   145856
#
# Disc length: 2462 seconds
#
# Revision: 0
# Processed by: cddbd v1.5.1PL0 Copyright (c) Steve Scherf et al.
# Submitted via: GXTranscoder 2.0.1939
#
DISCID=56099c07
DTITLE=gli eretici - ...c'é und dio
DYEAR=1900
DGENRE=Alternative
TTITLE0=Aschiss
TTITLE1=Il nuovo messia é' arrivato!
TTITLE2=chiamato ad uccidere
TTITLE3=bravi bambini
TTITLE4=stupiamoci!
TTITLE5=riel
TTITLE6=petali
EXTD=
EXTT0=
EXTT1=
EXTT2=
EXTT3=
EXTT4=
EXTT5=
EXTT6=
PLAYORDER=
